# xmcd
#
# Track frame offsets: 
#        150
#        15899
#        28048
#        38546
#        54707
#        70756
#        82950
#        97992
#        119726
#        135624
#        147136
#        164181
#        171737
#        183926
#        198363
#        215629
#        229672
#        250356
#        264417
#        279228
#        294362
#        306153
#
# Disc length: 4136 seconds
#
# Revision: 2
# Processed by: cddbd v1.5.2PL0 Copyright (c) Steve Scherf et al.
# Submitted via: ExactAudioCopy v0.99pb4
#
DISCID=3e102616
DTITLE=Lobo - Just A singer and A Cowboy Afraid Of Horses
DYEAR=2008
DGENRE=Folk/Rock
TTITLE0=Rings
TTITLE1=The Shelter Of Your Eyes
TTITLE2=I'm Only Sleeping
TTITLE3=Daydream Believer
TTITLE4=Reason To Believe
TTITLE5=Armstrong
TTITLE6=Universal Soldier
TTITLE7=Let's Get Together
TTITLE8=Lodi
TTITLE9=All For The Love Of A Girl
TTITLE10=Would I Still Have You
TTITLE11=The War To End All Wars
TTITLE12=My Momma Had Soul
TTITLE13=Three Pick-Ups
TTITLE14=Morning Sun
TTITLE15=Don't Tell Me Goodnight
TTITLE16=A Cowboy Afraid Of Horses
TTITLE17=Then I Met You
TTITLE18=Something To See Me Through
TTITLE19=Thinking Of You
TTITLE20=Everyday Is My Way
TTITLE21=However...
EXTD=CD contains the 2 LPs "Just A Singer" and "A Cowboy Afraid Of Hor
EXTD=ses"
EXTT0=
EXTT1=
EXTT2=
EXTT3=
EXTT4=
EXTT5=
EXTT6=
EXTT7=
EXTT8=
EXTT9=
EXTT10=
EXTT11=
EXTT12=
EXTT13=
EXTT14=
EXTT15=
EXTT16=
EXTT17=
EXTT18=
EXTT19=
EXTT20=
EXTT21=
PLAYORDER=
